<svg width="29" height="37" viewBox="0 0 29 37" fill="none" xmlns="http://www.w3.org/2000/svg">
<path d="M14.4823 36.9064L2.68041 33.9422L0.050415 7.25293H28.9496L26.3168 33.938L14.4823 36.9064Z" fill="#264DE4"/>
<path d="M24.0628 32.2387L26.3127 9.43506H14.5V34.6374L24.0628 32.2387Z" fill="#2965F1"/>
<path d="M6.07965 19.334L6.40391 22.6073H14.5V19.334H6.07965Z" fill="#EBEBEB"/>
<path d="M5.4281 12.7085L5.75698 15.9819H14.5V12.7085H5.4281Z" fill="#EBEBEB"/>
<path d="M14.5 27.8353L14.4841 27.8391L10.4549 26.8548L10.1973 24.2441H6.56555L7.07241 29.3837L14.4833 31.2451L14.5 31.2409V27.8353Z" fill="#EBEBEB"/>
<path d="M6.85162 0H11.2335V1.65791H8.68404V3.31582H11.2335V4.97373H6.85162V0Z" fill="white"/>
<path d="M12.1099 0H16.4917V1.44166H13.9423V1.72999H16.4917V5.04581H12.1099V3.53207H14.6593V3.24374H12.1099V0Z" fill="white"/>
<path d="M17.3681 0H21.75V1.44166H19.2005V1.72999H21.75V5.04581H17.3681V3.53207H19.9176V3.24374H17.3681V0Z" fill="white"/>
<path d="M22.8972 19.3338L23.5503 12.7085H14.4875V15.9819H19.5854L19.2562 19.3338H14.4875V22.6071H18.9425L18.5226 26.8523L14.4875 27.8377V31.2432L21.9043 29.3834L21.9587 28.8304L22.8089 20.2128L22.8972 19.3338Z" fill="white"/>
</svg>
