<svg width="29" height="43" viewBox="0 0 29 43" fill="none" xmlns="http://www.w3.org/2000/svg">
<path d="M7.16667 43.0003C11.1227 43.0003 14.3333 39.7897 14.3333 35.8337V28.667H7.16667C3.21067 28.667 0 31.8777 0 35.8337C0 39.7897 3.21067 43.0003 7.16667 43.0003Z" fill="#0ACF83"/>
<path d="M0 21.4997C0 17.5437 3.21067 14.333 7.16667 14.333H14.3333V28.6663H7.16667C3.21067 28.6663 0 25.4557 0 21.4997Z" fill="#A259FF"/>
<path d="M0 7.16667C0 3.21067 3.21067 0 7.16667 0H14.3333V14.3333H7.16667C3.21067 14.3333 0 11.1227 0 7.16667Z" fill="#F24E1E"/>
<path d="M14.3334 0H21.5C25.456 0 28.6667 3.21067 28.6667 7.16667C28.6667 11.1227 25.456 14.3333 21.5 14.3333H14.3334V0Z" fill="#FF7262"/>
<path d="M28.6667 21.4997C28.6667 25.4557 25.456 28.6663 21.5 28.6663C17.544 28.6663 14.3334 25.4557 14.3334 21.4997C14.3334 17.5437 17.544 14.333 21.5 14.333C25.456 14.333 28.6667 17.5437 28.6667 21.4997Z" fill="#1ABCFE"/>
</svg>
