<svg width="29" height="37" viewBox="0 0 29 37" fill="none" xmlns="http://www.w3.org/2000/svg">
<path d="M28.9496 7.25293L26.3168 33.938L14.4823 36.9065L2.68041 33.9422L0.050415 7.25293H28.9496Z" fill="#E44D26"/>
<path d="M14.5 34.6374L24.0628 32.2387L26.3127 9.43506H14.5V34.6374Z" fill="#F16529"/>
<path d="M9.38198 15.9819H14.5V12.7085H5.4281L5.5147 13.5867L6.4039 22.6071H14.5V19.3338H9.71261L9.38198 15.9819Z" fill="#EBEBEB"/>
<path d="M10.1973 24.2441H6.56555L7.07241 29.3837L14.4833 31.2451L14.5 31.241V27.8353L14.4841 27.8391L10.4549 26.8548L10.1973 24.2441Z" fill="#EBEBEB"/>
<path d="M2.7392 0H4.57775V1.64349H6.25959V0H8.09822V4.9769H6.25967V3.31034H4.57783V4.9769H2.73928V0H2.7392Z" fill="white"/>
<path d="M10.516 1.65041H8.8974V0H13.974V1.65041H12.3547V4.9769H10.5161V1.65041H10.516Z" fill="white"/>
<path d="M14.7797 0H16.6968L17.8761 1.74873L19.0541 0H20.972V4.9769H19.141V2.51007L17.8761 4.27964H17.8444L16.5786 2.51007V4.9769H14.7797V0Z" fill="white"/>
<path d="M21.887 0H23.7261V3.33182H26.3117V4.9769H21.887V0Z" fill="white"/>
<path d="M14.4875 22.6073H18.9425L18.5226 26.8525L14.4875 27.8379V31.2434L21.9043 29.3836L21.9587 28.8306L22.8089 20.213L22.8972 19.334H14.4875V22.6073Z" fill="white"/>
<path d="M14.4875 15.9739V15.9819H23.2264L23.299 15.2461L23.4638 13.5867L23.5503 12.7085H14.4875V15.9739Z" fill="white"/>
</svg>
