<svg width="31" height="32" viewBox="0 0 31 32" fill="none" xmlns="http://www.w3.org/2000/svg">
<g clip-path="url(#clip0)">
<path d="M2.87414 28.7655L-0.00335693 0.00390625L30.9962 0.0148838L28.1429 28.7435L15.4723 31.9929L2.87414 28.7655ZM25.8095 27.1957L28.2155 2.56171H15.5206L15.6173 29.7315L25.8095 27.1957ZM14.3358 6.17338H11.2527L11.2165 20.9164L5.23175 19.4344L5.24384 22.8046L14.3358 25.0331V6.17338Z" fill="#D8CF00"/>
<path d="M15.5227 2.54834H28.2175L25.8116 27.1823L15.5227 29.7181V2.54834ZM25.1587 23.0547L25.9929 13.8444L19.8269 14.4701V9.55211L26.404 9.53016L26.67 6.17098L16.7438 6.21489L16.8768 18.444L22.8736 17.5109L22.789 20.2334L16.7438 21.6934L16.8043 25.0307L25.1587 23.0547Z" fill="#D8CF00"/>
</g>
<defs>
<clipPath id="clip0">
<rect width="31" height="32" fill="white"/>
</clipPath>
</defs>
</svg>
