<svg width="35" height="21" viewBox="0 0 35 21" fill="none" xmlns="http://www.w3.org/2000/svg">
<g clip-path="url(#clip0)">
<path d="M17.3025 20.9395C17.184 20.9395 17.0734 20.9086 16.9707 20.8545L15.9201 20.2439C15.762 20.1588 15.8411 20.1279 15.8885 20.1125C16.1017 20.0429 16.1412 20.0274 16.3624 19.9038C16.3861 19.8883 16.4178 19.896 16.4414 19.9115L17.2472 20.383C17.2788 20.3984 17.3183 20.3984 17.342 20.383L20.4939 18.5975C20.5255 18.582 20.5414 18.551 20.5414 18.5125V14.9491C20.5414 14.9104 20.5255 14.8796 20.4939 14.8641L17.342 13.0863C17.3104 13.0708 17.2709 13.0708 17.2472 13.0863L14.0952 14.8641C14.0637 14.8795 14.0478 14.9182 14.0478 14.9491V18.5124C14.0478 18.5434 14.0637 18.5819 14.0952 18.5975L14.9563 19.0844C15.4224 19.3163 15.7147 19.0457 15.7147 18.7752V15.2583C15.7147 15.2119 15.7542 15.1655 15.8095 15.1655H16.2123C16.2598 15.1655 16.3071 15.2041 16.3071 15.2583V18.7752C16.3071 19.3858 15.9674 19.7414 15.375 19.7414C15.1933 19.7414 15.0511 19.7414 14.6482 19.5481L13.8188 19.0844C13.6134 18.9685 13.487 18.752 13.487 18.5201V14.9568C13.487 14.725 13.6134 14.5085 13.8188 14.3926L16.9707 12.607C17.1682 12.4988 17.4368 12.4988 17.6343 12.607L20.7862 14.3926C20.9916 14.5085 21.118 14.725 21.118 14.9568V18.5201C21.118 18.752 20.9916 18.9685 20.7862 19.0844L17.6343 20.8699C17.5316 20.9164 17.4131 20.9395 17.3025 20.9395H17.3025ZM18.2741 18.4892C16.8917 18.4892 16.6073 17.8709 16.6073 17.3453C16.6073 17.2989 16.6468 17.2525 16.7021 17.2525H17.1129C17.1603 17.2525 17.1998 17.2834 17.1998 17.3298C17.263 17.7395 17.4447 17.9404 18.282 17.9404C18.9456 17.9404 19.2301 17.7936 19.2301 17.4457C19.2301 17.2448 19.151 17.098 18.1162 16.9974C17.2551 16.9124 16.7179 16.7269 16.7179 16.0544C16.7179 15.4283 17.2552 15.0573 18.1557 15.0573C19.1668 15.0573 19.6645 15.3974 19.7277 16.1394C19.7277 16.1627 19.7198 16.1858 19.704 16.209C19.6882 16.2245 19.6645 16.2399 19.6408 16.2399H19.23C19.1905 16.2399 19.151 16.209 19.1431 16.1703C19.0483 15.7453 18.8034 15.6061 18.1557 15.6061C17.4289 15.6061 17.342 15.8535 17.342 16.0389C17.342 16.2631 17.4447 16.3327 18.4242 16.4563C19.3959 16.5801 19.8541 16.7578 19.8541 17.4225C19.8462 18.1028 19.2774 18.4892 18.2741 18.4892Z" fill="#539E43"/>
<path d="M7.52346 7.00305C7.52346 6.86394 7.44445 6.73246 7.31807 6.6629L3.96863 4.77691C3.91326 4.74595 3.85011 4.7305 3.78695 4.72274H3.75531C3.69215 4.72274 3.62893 4.74595 3.57363 4.77691L0.224192 6.6629C0.0977435 6.73246 0.0187988 6.86387 0.0187988 7.00305L0.0267275 12.0736C0.0267275 12.1432 0.0662339 12.2127 0.12939 12.2437C0.192614 12.2823 0.271558 12.2823 0.326922 12.2437L2.31763 11.1306C2.444 11.0611 2.52302 10.9296 2.52302 10.7905V8.41754C2.52302 8.27843 2.60196 8.14701 2.72841 8.07746L3.57363 7.5982C3.63685 7.55955 3.70794 7.54403 3.77902 7.54403C3.85011 7.54403 3.92119 7.55955 3.97656 7.5982L4.82178 8.07746C4.94822 8.14701 5.02717 8.27836 5.02717 8.41754V10.7905C5.02717 10.9296 5.10618 11.0611 5.23256 11.1306L7.22326 12.2437C7.28649 12.2823 7.36543 12.2823 7.42866 12.2437C7.49188 12.2127 7.53139 12.1432 7.53139 12.0736L7.52346 7.00305ZM23.6229 0.0232237C23.5597 -0.00774124 23.4807 -0.00774124 23.4254 0.0232237C23.3622 0.0618798 23.3227 0.123676 23.3227 0.19323V5.21751C23.3227 5.26386 23.2991 5.31021 23.2516 5.34117C23.2043 5.36431 23.1568 5.36431 23.1094 5.34117L22.2721 4.86968C22.2107 4.83547 22.1413 4.81749 22.0706 4.81749C22 4.81749 21.9306 4.83547 21.8692 4.86968L18.5197 6.76342C18.3933 6.83297 18.3143 6.96439 18.3143 7.1035V10.8832C18.3143 11.0223 18.3933 11.1538 18.5197 11.2234L21.8692 13.1171C21.9306 13.1513 22 13.1693 22.0706 13.1693C22.1413 13.1693 22.2107 13.1513 22.2721 13.1171L25.6215 11.2234C25.7479 11.1538 25.8269 11.0224 25.8269 10.8832V1.46092C25.8269 1.31405 25.7479 1.1827 25.6215 1.11308L23.623 0.0232237H23.6229ZM23.3148 9.63881C23.3148 9.67747 23.2991 9.70837 23.2674 9.72382L22.122 10.3731C22.106 10.3807 22.0884 10.3847 22.0706 10.3847C22.0528 10.3847 22.0353 10.3807 22.0193 10.3731L20.8738 9.72382C20.8422 9.70837 20.8264 9.66971 20.8264 9.63881V8.34023C20.8264 8.30157 20.8422 8.27067 20.8738 8.25522L22.0193 7.6059C22.0353 7.59826 22.0528 7.59429 22.0706 7.59429C22.0884 7.59429 22.106 7.59826 22.122 7.6059L23.2674 8.25522C23.2991 8.27061 23.3148 8.30933 23.3148 8.34023V9.63881ZM34.7693 8.30933C34.8957 8.23977 34.9668 8.10836 34.9668 7.96918V7.0494C34.9668 6.91029 34.8878 6.77887 34.7693 6.70932L31.4435 4.82333C31.3822 4.78914 31.3127 4.77116 31.2421 4.77116C31.1715 4.77116 31.1021 4.78914 31.0407 4.82333L27.6912 6.71701C27.5648 6.78656 27.4859 6.91798 27.4859 7.05715V10.8369C27.4859 10.976 27.5648 11.1074 27.6912 11.177L31.017 13.0321C31.1434 13.1016 31.2934 13.1016 31.412 13.0321L33.4263 11.9346C33.4895 11.9036 33.529 11.8341 33.529 11.7645C33.529 11.6949 33.4895 11.6254 33.4263 11.5944L30.0611 9.70068C29.9979 9.66209 29.9584 9.60023 29.9584 9.53067V8.34805C29.9584 8.2785 29.9979 8.20894 30.0611 8.17798L31.1118 7.59051C31.1425 7.57157 31.1781 7.56153 31.2145 7.56153C31.2508 7.56153 31.2864 7.57157 31.3172 7.59051L32.3678 8.17798C32.431 8.21663 32.4705 8.27843 32.4705 8.34805V9.27559C32.4705 9.34515 32.51 9.4147 32.5732 9.4456C32.6364 9.48426 32.7153 9.48426 32.7786 9.4456L34.7693 8.30933Z" fill="#F5EEEE"/>
<path d="M31.1901 8.13169C31.2018 8.12414 31.2155 8.12012 31.2296 8.12012C31.2436 8.12012 31.2573 8.12414 31.269 8.13169L31.9089 8.49498C31.9327 8.51036 31.9484 8.53357 31.9484 8.56453V9.29111C31.9484 9.322 31.9327 9.34521 31.9089 9.36066L31.269 9.72395C31.2573 9.7315 31.2436 9.73552 31.2296 9.73552C31.2155 9.73552 31.2018 9.7315 31.1901 9.72395L30.5502 9.36066C30.5265 9.34521 30.5107 9.322 30.5107 9.29111V8.56453C30.5107 8.53357 30.5265 8.51036 30.5502 8.49498L31.1901 8.13169Z" fill="#539E43"/>
<mask id="mask0" mask-type="alpha" maskUnits="userSpaceOnUse" x="9" y="4" width="8" height="10">
<path d="M13.1236 4.83879C13.0622 4.8046 12.9928 4.78662 12.9221 4.78662C12.8515 4.78662 12.7821 4.8046 12.7207 4.83879L9.39498 6.71695C9.26853 6.78651 9.19745 6.91792 9.19745 7.05703V10.8214C9.19745 10.9605 9.27646 11.0919 9.39498 11.1615L12.7207 13.0398C12.7821 13.074 12.8515 13.0919 12.9221 13.0919C12.9928 13.0919 13.0622 13.074 13.1236 13.0398L16.4493 11.1615C16.5757 11.0919 16.6469 10.9605 16.6469 10.8214V7.0571C16.6469 6.91799 16.5678 6.78657 16.4493 6.71702L13.1236 4.83879Z" fill="white"/>
</mask>
<g mask="url(#mask0)">
<path d="M13.1236 4.83879C13.0622 4.8046 12.9928 4.78662 12.9221 4.78662C12.8515 4.78662 12.7821 4.8046 12.7207 4.83879L9.39498 6.71695C9.26853 6.78651 9.19745 6.91792 9.19745 7.05703V10.8214C9.19745 10.9605 9.27646 11.0919 9.39498 11.1615L12.7207 13.0398C12.7821 13.074 12.8515 13.0919 12.9221 13.0919C12.9928 13.0919 13.0622 13.074 13.1236 13.0398L16.4493 11.1615C16.5757 11.0919 16.6469 10.9605 16.6469 10.8214V7.0571C16.6469 6.91799 16.5678 6.78657 16.4493 6.71702L13.1236 4.83879Z" fill="url(#paint0_linear)"/>
<path d="M16.4572 6.71669L13.1157 4.83846C13.0829 4.82224 13.0485 4.80929 13.013 4.7998L9.26855 11.0763C9.29957 11.1133 9.33703 11.1447 9.37921 11.169L12.7207 13.0473C12.8155 13.1014 12.9261 13.1169 13.0288 13.0859L16.5442 6.79407C16.5204 6.76317 16.4888 6.7399 16.4572 6.71676V6.71669Z" fill="url(#paint1_linear)"/>
<path fill-rule="evenodd" clip-rule="evenodd" d="M16.4651 11.1618C16.5599 11.1077 16.631 11.015 16.6627 10.9145L12.9971 4.79268C12.9023 4.77723 12.7996 4.78492 12.7128 4.83903L9.3949 6.70963L12.9734 13.0942C13.0254 13.0859 13.076 13.0703 13.1235 13.0479L16.4651 11.1619L16.4651 11.1618Z" fill="url(#paint2_linear)"/>
<path fill-rule="evenodd" clip-rule="evenodd" d="M16.4652 11.1618L13.1315 13.0401C13.0845 13.0636 13.0338 13.0793 12.9814 13.0865L13.0447 13.2024L16.7417 11.1078V11.0614L16.6469 10.9067C16.6311 11.0149 16.56 11.1077 16.4652 11.1618Z" fill="url(#paint3_linear)"/>
<path fill-rule="evenodd" clip-rule="evenodd" d="M16.4652 11.1618L13.1315 13.0401C13.0845 13.0636 13.0338 13.0793 12.9814 13.0865L13.0447 13.2024L16.7417 11.1078V11.0614L16.6469 10.9067C16.6311 11.0149 16.56 11.1077 16.4652 11.1618Z" fill="url(#paint4_linear)"/>
</g>
</g>
<defs>
<linearGradient id="paint0_linear" x1="14.2771" y1="6.23897" x2="10.7436" y2="11.9132" gradientUnits="userSpaceOnUse">
<stop stop-color="#41873F"/>
<stop offset="0.3288" stop-color="#418B3D"/>
<stop offset="0.6352" stop-color="#419637"/>
<stop offset="0.9319" stop-color="#3FA92D"/>
<stop offset="1" stop-color="#3FAE2A"/>
</linearGradient>
<linearGradient id="paint1_linear" x1="12.4172" y1="9.37988" x2="21.4551" y2="4.36154" gradientUnits="userSpaceOnUse">
<stop offset="0.1376" stop-color="#41873F"/>
<stop offset="0.4032" stop-color="#54A044"/>
<stop offset="0.7136" stop-color="#66B848"/>
<stop offset="0.9081" stop-color="#6CC04A"/>
</linearGradient>
<linearGradient id="paint2_linear" x1="9.07592" y1="8.93969" x2="16.7716" y2="8.93969" gradientUnits="userSpaceOnUse">
<stop offset="0.09192" stop-color="#6CC04A"/>
<stop offset="0.2864" stop-color="#66B848"/>
<stop offset="0.5968" stop-color="#54A044"/>
<stop offset="0.8624" stop-color="#41873F"/>
</linearGradient>
<linearGradient id="paint3_linear" x1="9.07604" y1="12.0609" x2="16.7716" y2="12.0609" gradientUnits="userSpaceOnUse">
<stop offset="0.09192" stop-color="#6CC04A"/>
<stop offset="0.2864" stop-color="#66B848"/>
<stop offset="0.5968" stop-color="#54A044"/>
<stop offset="0.8624" stop-color="#41873F"/>
</linearGradient>
<linearGradient id="paint4_linear" x1="17.8928" y1="6.06126" x2="16.0234" y2="16.0721" gradientUnits="userSpaceOnUse">
<stop stop-color="#41873F"/>
<stop offset="0.3288" stop-color="#418B3D"/>
<stop offset="0.6352" stop-color="#419637"/>
<stop offset="0.9319" stop-color="#3FA92D"/>
<stop offset="1" stop-color="#3FAE2A"/>
</linearGradient>
<clipPath id="clip0">
<rect width="35" height="21" fill="white"/>
</clipPath>
</defs>
</svg>
