<svg width="36" height="32" viewBox="0 0 36 32" fill="none" xmlns="http://www.w3.org/2000/svg">
<path d="M28.2691 11.0853C27.9395 10.973 27.5979 10.8668 27.2462 10.7663C27.304 10.5329 27.3571 10.3026 27.4042 10.0761C28.1785 6.35751 27.6723 3.36179 25.9435 2.37547C24.2859 1.42972 21.575 2.41582 18.837 4.77323C18.5738 4.99991 18.3097 5.23992 18.0458 5.49145C17.87 5.32503 17.6944 5.16421 17.5193 5.01038C14.6499 2.48968 11.7737 1.42743 10.0467 2.4166C8.39064 3.36509 7.90022 6.18136 8.5972 9.70549C8.6645 10.0459 8.74318 10.3935 8.83214 10.7469C8.42509 10.8613 8.03211 10.9831 7.65611 11.1128C4.29202 12.2732 2.14355 14.0918 2.14355 15.9782C2.14355 17.9265 4.44993 19.8807 7.95389 21.0656C8.23041 21.1591 8.51734 21.2475 8.81303 21.3315C8.71705 21.7137 8.63357 22.0883 8.56349 22.4537C7.89892 25.9166 8.4179 28.6664 10.0696 29.6089C11.7755 30.5822 14.6387 29.5817 17.4267 27.1706C17.647 26.98 17.8682 26.7779 18.0897 26.566C18.3769 26.8396 18.6636 27.0985 18.9487 27.3414C21.6492 29.6405 24.3164 30.5689 25.9665 29.6238C27.6708 28.6477 28.2247 25.6938 27.5056 22.1C27.4507 21.8255 27.3868 21.5451 27.315 21.2597C27.5161 21.2009 27.7135 21.1402 27.9059 21.077C31.5486 19.8829 33.9187 17.9526 33.9187 15.9782C33.9187 14.085 31.7009 12.2541 28.2691 11.0853Z" fill="#53C1DE"/>
<path d="M27.479 19.8022C27.3053 19.8591 27.127 19.9141 26.9453 19.9674C26.5432 18.7079 26.0004 17.3685 25.3363 15.9847C25.9701 14.6339 26.4918 13.3116 26.8827 12.0602C27.2078 12.1533 27.5232 12.2515 27.8272 12.355C30.7677 13.3565 32.5613 14.8372 32.5613 15.9782C32.5613 17.1935 30.6242 18.7711 27.479 19.8022ZM26.174 22.3607C26.4919 23.9499 26.5374 25.3866 26.3267 26.5098C26.1375 27.5191 25.7569 28.192 25.2863 28.4615C24.2849 29.0349 22.1435 28.2895 19.834 26.3233C19.5692 26.0979 19.3026 25.8572 19.035 25.6025C19.9304 24.6337 20.8252 23.5074 21.6985 22.2566C23.2346 22.1217 24.6859 21.9012 26.002 21.6002C26.0668 21.8589 26.1244 22.1126 26.174 22.3607ZM12.9764 28.3624C11.998 28.7042 11.2188 28.714 10.7478 28.4453C9.74552 27.8734 9.32884 25.6656 9.89721 22.7041C9.96231 22.3649 10.0398 22.0165 10.1291 21.6604C11.4308 21.9451 12.8714 22.1501 14.4112 22.2736C15.2904 23.4975 16.211 24.6226 17.1388 25.6077C16.9361 25.8013 16.7342 25.9856 16.5334 26.1593C15.3006 27.2255 14.0652 27.9819 12.9764 28.3624ZM8.3929 19.7947C6.84351 19.2708 5.56397 18.5898 4.68691 17.8468C3.89881 17.179 3.50092 16.5161 3.50092 15.9782C3.50092 14.8334 5.22592 13.3733 8.10292 12.3809C8.452 12.2605 8.81743 12.147 9.19666 12.0404C9.59428 13.32 10.1159 14.6579 10.7453 16.0108C10.1077 17.3838 9.57872 18.7431 9.17721 20.0377C8.90686 19.9608 8.64493 19.8799 8.3929 19.7947ZM9.92933 9.4475C9.33218 6.42811 9.72877 4.15038 10.7268 3.57883C11.7898 2.96995 14.1405 3.83808 16.618 6.01458C16.7763 6.15369 16.9353 6.29929 17.0948 6.44993C16.1716 7.43071 15.2593 8.5473 14.3879 9.76405C12.8935 9.9011 11.463 10.1212 10.1478 10.416C10.0651 10.0869 9.99183 9.76361 9.92933 9.4475ZM23.6357 12.796C23.3213 12.2587 22.9985 11.7341 22.6694 11.2238C23.6833 11.3506 24.6546 11.5189 25.5668 11.7249C25.2929 12.5932 24.9516 13.5012 24.5498 14.4319C24.2616 13.8905 23.9567 13.3447 23.6357 12.796ZM18.0463 7.40973C18.6724 8.08083 19.2994 8.83011 19.9161 9.64307C19.2947 9.61403 18.6655 9.59892 18.0311 9.59892C17.4027 9.59892 16.7782 9.61369 16.1606 9.64223C16.7779 8.83683 17.4104 8.08855 18.0463 7.40973ZM12.4211 12.8053C12.107 13.3441 11.8078 13.887 11.5241 14.4309C11.1288 13.5034 10.7906 12.5913 10.5144 11.7107C11.421 11.51 12.3877 11.3458 13.3951 11.2214C13.0614 11.7364 12.736 12.265 12.4211 12.8053ZM13.4241 20.8307C12.3833 20.7158 11.402 20.5601 10.4957 20.3649C10.7763 19.4685 11.1219 18.537 11.5256 17.5895C11.81 18.133 12.1104 18.6762 12.4264 19.2162C12.7483 19.7663 13.0818 20.3052 13.4241 20.8307ZM18.0838 24.6413C17.4405 23.9545 16.7987 23.1948 16.172 22.3776C16.7804 22.4013 17.4007 22.4134 18.0311 22.4134C18.6788 22.4134 19.319 22.3989 19.9492 22.3712C19.3305 23.203 18.7057 23.9639 18.0838 24.6413ZM24.5628 17.5412C24.9875 18.499 25.3455 19.4256 25.6297 20.3067C24.7085 20.5147 23.7137 20.6822 22.6657 20.8066C22.9956 20.2895 23.3212 19.7558 23.6411 19.2069C23.9648 18.6516 24.2722 18.0954 24.5628 17.5412ZM22.4653 18.536C21.9686 19.3881 21.4587 20.2015 20.941 20.9693C19.9981 21.036 19.024 21.0704 18.0311 21.0704C17.0423 21.0704 16.0804 21.04 15.1542 20.9805C14.6157 20.2026 14.0946 19.3868 13.6011 18.5433C13.1089 17.7022 12.6559 16.8539 12.2454 16.0104C12.6558 15.1649 13.1077 14.3157 13.5971 13.476L13.597 13.4762C14.0877 12.6343 14.6041 11.8225 15.1377 11.0495C16.0827 10.9788 17.0517 10.9419 18.0311 10.9419C19.0148 10.9419 19.9851 10.9791 20.9298 11.0504C21.4553 11.8177 21.9682 12.6269 22.4608 13.4689C22.9591 14.3204 23.4168 15.164 23.8307 15.9913C23.418 16.8329 22.9613 17.6849 22.4653 18.536ZM25.2655 3.53887C26.3296 4.14596 26.7433 6.59436 26.0748 9.80496C26.0322 10.0098 25.9841 10.2185 25.932 10.43C24.6137 10.129 23.1822 9.90507 21.6834 9.76596C20.8103 8.53583 19.9056 7.4175 18.9974 6.44931C19.2415 6.21692 19.4854 5.99533 19.7282 5.78621C22.074 3.7664 24.2666 2.96894 25.2655 3.53887Z" fill="#1E3438"/>
<path d="M18.0311 13.1709C19.5982 13.1709 20.8685 14.4277 20.8685 15.9782C20.8685 17.5285 19.5982 18.7854 18.0311 18.7854C16.4641 18.7854 15.1937 17.5285 15.1937 15.9782C15.1937 14.4277 16.4641 13.1709 18.0311 13.1709Z" fill="#53C1DE"/>
</svg>
