<svg width="48" height="38" viewBox="0 0 48 38" fill="none" xmlns="http://www.w3.org/2000/svg">
<path d="M7.32824 26.2017L4.84139 27.1103L4.70905 34.5076L13.3172 31.363C10.3622 30.3734 8.20723 28.6293 7.32824 26.2017" fill="#FDBD39"/>
<path d="M8.6299 18.3774L0 21.53L4.84136 27.112L7.32821 26.2034C6.45119 23.7837 6.99241 21.0519 8.6299 18.3774Z" fill="#F69833"/>
<path d="M23.15 7.70124C12.1616 11.715 5.0764 19.9992 7.32819 26.2015L47.1198 11.6656C44.868 5.46327 34.1384 3.68752 23.15 7.70124" fill="#FECF33"/>
<path d="M31.296 30.1677C42.2843 26.154 49.3814 17.9073 47.1178 11.6675L7.32623 26.2014C9.58988 32.4432 20.3076 34.1815 31.296 30.1677Z" fill="#EE6723"/>
<path d="M47.1178 11.6655L7.32819 26.2014C8.10644 28.3505 11.0792 29.4093 15.247 29.4093C19.3121 29.4093 24.5149 28.4039 29.939 26.4227C40.9273 22.409 48.6565 15.9084 47.1178 11.6655" fill="#F69833"/>
<path d="M39.199 8.45996C35.1359 8.45996 29.9311 9.46537 24.507 11.4466C13.5186 15.4603 5.78946 21.9589 7.32818 26.2017L47.1197 11.6658C46.3395 9.51672 43.3687 8.45996 39.199 8.45996" fill="#FDBD39"/>
<path d="M37.0005 34.9007C35.8292 34.9007 34.1028 33.8439 31.8668 31.758C29.222 29.2909 26.1939 25.6762 23.3357 21.5815C20.4795 17.4868 18.1329 13.3941 16.7265 10.0539C15.1957 6.41549 14.9764 4.1795 16.0766 3.4052C16.3314 3.23137 16.6336 3.14249 16.9418 3.15039C17.8366 3.15039 19.5827 3.81605 22.8083 6.99226L22.8794 7.0614L22.8695 7.16016C22.8478 7.38929 22.8281 7.61842 22.8103 7.84557L22.7747 8.29396L22.4587 7.97594C18.9822 4.47381 17.4534 4.09654 16.9556 4.09654C16.8134 4.09654 16.7008 4.12419 16.6198 4.18147C16.1418 4.51727 16.1102 6.16068 17.5956 9.68651C18.9763 12.9654 21.2893 16.9969 24.108 21.0383C26.9287 25.0817 29.9113 28.6411 32.5108 31.0647C35.3117 33.678 36.5739 33.9604 36.9867 33.9604C37.1289 33.9604 37.2435 33.9308 37.3304 33.8696C37.8341 33.516 37.8341 31.7561 36.1788 27.9596L36.1018 27.7858L36.2677 27.6949C36.4336 27.6041 36.5956 27.5152 36.7457 27.4283L36.9452 27.3157L37.0381 27.5251C38.2114 30.2154 39.3096 33.6345 37.8696 34.6459C37.6148 34.8197 37.3106 34.9086 37.0005 34.9007ZM37.0005 34.4859V34.6933V34.4859Z" fill="#EE6723"/>
<path d="M31.5626 30.0535L31.5468 30.259C31.2683 33.6959 30.5375 37.8282 28.6294 37.996C28.5899 38 28.5504 38 28.5128 38C27.2171 38 25.9904 36.1433 24.8705 32.4831C23.8078 29.0185 22.9841 24.3687 22.5515 19.3891C22.117 14.4095 22.1229 9.68666 22.5693 6.08972C23.0552 2.17081 23.9796 0.124441 25.3189 0.00592577C25.3584 0.00197526 25.3998 0 25.4393 0C26.3796 0 27.7958 1.06466 29.2457 6.02256L28.2995 6.20428C27.8156 4.54902 27.2882 3.20189 26.7647 2.27352C26.2808 1.41823 25.8087 0.946148 25.4393 0.946148C25.4275 0.946148 25.4156 0.946148 25.4018 0.948124C24.8211 0.99948 23.9757 2.40586 23.5056 6.20626C23.0671 9.73802 23.0611 14.3917 23.4898 19.3062C23.9184 24.2226 24.7282 28.8032 25.7712 32.2046C26.2373 33.7275 26.7489 34.9838 27.2526 35.8351C27.7148 36.6213 28.1632 37.0539 28.5128 37.0539C28.5247 37.0539 28.5365 37.0539 28.5484 37.0519C29.1034 37.0045 30.1503 35.5388 30.5908 30.3854L31.5626 30.0535Z" fill="#EE6723"/>
</svg>
